<?xml version="1.0" encoding="UTF-8"?>
<svg xmlns="http://www.w3.org/2000/svg" id="Layer_1" data-name="Layer 1" viewBox="0 0 24 24">
  <path d="M21,5.5c0,.276-.224,.5-.5,.5h-3c-.276,0-.5-.224-.5-.5s.224-.5,.5-.5h3c.276,0,.5,.224,.5,.5Zm-.5,2.5h-3c-.276,0-.5,.224-.5,.5s.224,.5,.5,.5h3c.276,0,.5-.224,.5-.5s-.224-.5-.5-.5Zm0,3h-3c-.276,0-.5,.224-.5,.5s.224,.5,.5,.5h3c.276,0,.5-.224,.5-.5s-.224-.5-.5-.5Zm0,3h-3c-.276,0-.5,.224-.5,.5s.224,.5,.5,.5h3c.276,0,.5-.224,.5-.5s-.224-.5-.5-.5Zm-5.5-4c0,1.649-.669,3.145-1.75,4.231-.003,.003-.004,.008-.008,.011s-.008,.004-.011,.008c-1.086,1.081-2.581,1.75-4.231,1.75-3.309,0-6-2.691-6-6s2.691-6,6-6,6,2.691,6,6Zm-5.5-4.949v4.535c0,.131,.054,.26,.146,.354l3.207,3.207c.705-.862,1.146-1.948,1.146-3.146,0-2.586-1.98-4.694-4.5-4.949Zm-.5,9.949c1.198,0,2.284-.441,3.146-1.146l-3.207-3.207c-.283-.283-.439-.66-.439-1.061V5.051c-2.52,.255-4.5,2.364-4.5,4.949,0,2.757,2.243,5,5,5ZM24,5.5V14.5c0,2.481-2.019,4.5-4.5,4.5h-7v3h5c.276,0,.5,.224,.5,.5s-.224,.5-.5,.5H6.5c-.276,0-.5-.224-.5-.5s.224-.5,.5-.5h5v-3H4.5c-2.481,0-4.5-2.019-4.5-4.5V5.5C0,3.019,2.019,1,4.5,1h15c2.481,0,4.5,2.019,4.5,4.5Zm-1,0c0-1.93-1.57-3.5-3.5-3.5H4.5c-1.93,0-3.5,1.57-3.5,3.5V14.5c0,1.93,1.57,3.5,3.5,3.5h15c1.93,0,3.5-1.57,3.5-3.5V5.5Z"/>
</svg>
